<?xml version="1.0" encoding="UTF-8"?>
<!-- Generator: visioncortex VTracer 0.6.4 -->
<svg version="1.1" xmlns="http://www.w3.org/2000/svg" width="512" height="512" viewBox="0 0 340 388">
<path d="M0 0 C3.447 2.786 5.986 5.323 6.938 9.766 C7.384 15.396 7.158 18.935 3.938 23.766 C2.925 24.481 1.913 25.196 0.871 25.932 C-1.928 28.219 -2.051 28.709 -2.835 32.546 C-2.876 34 -2.885 35.456 -2.867 36.91 C-2.881 37.68 -2.895 38.45 -2.909 39.243 C-2.946 41.689 -2.942 44.132 -2.938 46.578 C-2.956 48.242 -2.976 49.905 -3 51.568 C-3.052 55.634 -3.067 59.699 -3.062 63.766 C-1.767 63.761 -0.472 63.757 0.863 63.752 C13.089 63.712 25.316 63.682 37.542 63.662 C43.827 63.652 50.113 63.637 56.398 63.615 C62.467 63.593 68.536 63.581 74.604 63.576 C76.916 63.572 79.228 63.565 81.54 63.554 C84.786 63.54 88.031 63.538 91.277 63.539 C92.227 63.531 93.176 63.524 94.154 63.517 C105.181 63.551 114.428 65.813 122.762 73.434 C131.27 82.8 132.093 92.291 132.035 104.508 C132.033 106.193 132.033 106.193 132.031 107.912 C132.025 111.488 132.013 115.065 132 118.641 C131.995 121.07 131.99 123.5 131.986 125.93 C131.975 131.875 131.959 137.82 131.938 143.766 C132.753 143.748 133.568 143.731 134.409 143.713 C135.483 143.699 136.557 143.686 137.664 143.672 C138.727 143.654 139.79 143.637 140.885 143.619 C146.349 143.881 150.039 145.701 153.723 149.707 C157.818 154.965 159.06 158.607 159.099 165.329 C159.104 165.991 159.109 166.653 159.114 167.336 C159.128 169.526 159.135 171.716 159.141 173.906 C159.146 175.432 159.152 176.958 159.158 178.484 C159.168 181.685 159.174 184.886 159.178 188.087 C159.183 192.177 159.207 196.267 159.236 200.357 C159.254 203.51 159.26 206.664 159.261 209.818 C159.264 211.325 159.272 212.832 159.285 214.339 C159.302 216.454 159.3 218.569 159.294 220.685 C159.298 221.886 159.301 223.087 159.305 224.325 C158.663 230.332 156.241 235.462 151.938 239.766 C147.332 243.178 143.357 243.976 137.656 243.871 C136.583 243.856 135.51 243.841 134.404 243.825 C133.59 243.805 132.776 243.786 131.938 243.766 C131.947 244.935 131.947 244.935 131.958 246.128 C132.018 253.512 132.064 260.897 132.093 268.281 C132.109 272.077 132.13 275.872 132.164 279.667 C132.197 283.337 132.214 287.007 132.222 290.677 C132.228 292.07 132.238 293.463 132.255 294.856 C132.391 306.962 131.343 316.61 122.938 325.766 C116.31 332.486 110.147 335.981 100.594 336.156 C97.874 336.144 95.157 336.083 92.438 336.016 C91.029 335.996 89.62 335.977 88.211 335.961 C84.786 335.914 81.362 335.848 77.938 335.766 C77.961 336.604 77.961 336.604 77.985 337.459 C78.048 340.04 78.087 342.621 78.125 345.203 C78.15 346.082 78.175 346.96 78.201 347.865 C78.309 357.65 75.59 366.399 68.938 373.766 C66.075 375.79 63.132 377.335 59.938 378.766 C59.278 379.096 58.618 379.426 57.938 379.766 C56.042 379.868 54.144 379.905 52.246 379.913 C51.035 379.92 49.824 379.927 48.576 379.934 C47.226 379.937 45.876 379.94 44.527 379.943 C43.111 379.949 41.695 379.956 40.279 379.963 C35.621 379.984 30.963 379.994 26.305 380.004 C24.701 380.008 23.097 380.012 21.493 380.016 C13.955 380.035 6.417 380.05 -1.121 380.058 C-9.818 380.068 -18.514 380.094 -27.21 380.134 C-33.934 380.165 -40.658 380.179 -47.381 380.183 C-51.396 380.185 -55.41 380.194 -59.424 380.219 C-63.205 380.242 -66.985 380.247 -70.766 380.236 C-72.149 380.236 -73.533 380.242 -74.916 380.256 C-84.317 380.344 -90.572 379.746 -97.812 373.328 C-98.555 372.483 -99.297 371.637 -100.062 370.766 C-101.145 369.59 -101.145 369.59 -102.25 368.391 C-106.826 361.763 -106.313 354.583 -106.188 346.828 C-106.178 345.763 -106.169 344.697 -106.16 343.6 C-106.137 340.988 -106.104 338.377 -106.062 335.766 C-107.318 335.824 -108.574 335.882 -109.867 335.941 C-127.289 336.509 -127.289 336.509 -135.062 330.766 C-135.713 330.308 -136.364 329.85 -137.035 329.379 C-143.719 324.199 -147.032 317.875 -149.062 309.766 C-149.303 306.418 -149.303 306.418 -149.29 302.912 C-149.29 302.268 -149.29 301.623 -149.29 300.959 C-149.289 298.854 -149.274 296.749 -149.258 294.645 C-149.254 293.175 -149.251 291.705 -149.249 290.235 C-149.242 286.387 -149.222 282.538 -149.2 278.69 C-149.179 274.755 -149.17 270.82 -149.16 266.885 C-149.139 259.178 -149.105 251.472 -149.062 243.766 C-150.401 243.794 -150.401 243.794 -151.766 243.823 C-152.936 243.837 -154.107 243.852 -155.312 243.867 C-157.053 243.895 -157.053 243.895 -158.828 243.924 C-164.029 243.669 -166.773 242.006 -170.52 238.34 C-175.164 233.16 -176.31 228.732 -176.353 221.899 C-176.36 221.229 -176.366 220.558 -176.373 219.867 C-176.392 217.66 -176.396 215.453 -176.398 213.246 C-176.405 211.703 -176.412 210.16 -176.419 208.617 C-176.431 205.385 -176.434 202.153 -176.433 198.921 C-176.433 194.795 -176.46 190.67 -176.495 186.544 C-176.517 183.357 -176.521 180.17 -176.52 176.983 C-176.522 175.463 -176.531 173.942 -176.547 172.422 C-176.701 155.706 -176.701 155.706 -170.65 149.262 C-165.688 144.801 -161.311 143.496 -154.75 143.641 C-153.681 143.659 -152.613 143.677 -151.512 143.695 C-150.703 143.719 -149.895 143.742 -149.062 143.766 C-149.071 143.126 -149.08 142.487 -149.089 141.828 C-149.178 135.127 -149.238 128.427 -149.282 121.726 C-149.302 119.23 -149.329 116.735 -149.364 114.24 C-149.413 110.637 -149.436 107.036 -149.453 103.434 C-149.474 102.331 -149.494 101.229 -149.516 100.093 C-149.519 89.473 -146.907 80.538 -139.48 72.777 C-130.419 65.239 -121.287 63.609 -109.948 63.652 C-108.933 63.652 -107.918 63.652 -106.872 63.652 C-103.523 63.652 -100.173 63.66 -96.824 63.668 C-94.5 63.67 -92.175 63.671 -89.851 63.672 C-83.737 63.676 -77.623 63.686 -71.509 63.697 C-65.268 63.707 -59.028 63.712 -52.787 63.717 C-40.546 63.728 -28.304 63.745 -16.062 63.766 C-15.732 51.886 -15.403 40.006 -15.062 27.766 C-16.713 27.106 -18.363 26.446 -20.062 25.766 C-23.63 22.102 -24.437 18.855 -24.75 13.891 C-24.559 8.21 -23.053 5.176 -18.984 1.262 C-13.458 -3.041 -6.089 -3.644 0 0 Z M-130.312 80.953 C-130.957 81.504 -131.602 82.054 -132.266 82.621 C-136.954 88.217 -137.502 93.785 -137.45 100.792 C-137.456 101.678 -137.461 102.565 -137.466 103.478 C-137.481 106.437 -137.474 109.395 -137.467 112.353 C-137.472 114.479 -137.479 116.605 -137.487 118.731 C-137.505 124.498 -137.504 130.264 -137.498 136.031 C-137.495 140.847 -137.501 145.663 -137.507 150.479 C-137.521 161.842 -137.52 173.204 -137.509 184.567 C-137.497 196.285 -137.511 208.003 -137.538 219.721 C-137.56 229.786 -137.567 239.852 -137.561 249.917 C-137.557 255.927 -137.56 261.937 -137.577 267.946 C-137.593 273.598 -137.589 279.248 -137.57 284.9 C-137.566 286.972 -137.569 289.044 -137.58 291.116 C-137.593 293.948 -137.581 296.78 -137.564 299.613 C-137.573 300.429 -137.583 301.245 -137.593 302.086 C-137.513 308.295 -135.971 313.691 -131.615 318.296 C-127.205 322.116 -123.763 324.018 -117.943 324.009 C-116.925 324.012 -115.908 324.015 -114.859 324.018 C-113.767 324.011 -112.676 324.003 -111.551 323.996 C-110.427 323.996 -109.303 323.995 -108.145 323.995 C-105.772 323.992 -103.399 323.984 -101.026 323.971 C-97.379 323.953 -93.731 323.951 -90.084 323.951 C-87.781 323.946 -85.479 323.94 -83.176 323.934 C-81.529 323.932 -81.529 323.932 -79.849 323.93 C-78.337 323.921 -78.337 323.921 -76.794 323.911 C-75.902 323.907 -75.011 323.903 -74.092 323.899 C-72.067 323.99 -72.067 323.99 -71.062 322.766 C-70.962 320.184 -70.923 317.629 -70.93 315.047 C-70.928 313.887 -70.928 313.887 -70.927 312.704 C-70.926 311.067 -70.928 309.429 -70.932 307.792 C-70.937 305.276 -70.932 302.761 -70.926 300.246 C-70.926 298.659 -70.928 297.072 -70.93 295.484 C-70.927 294.348 -70.927 294.348 -70.924 293.19 C-70.618 289.685 -70.618 289.685 -72.062 286.766 C-73.706 286.518 -75.352 286.293 -77 286.078 C-82.434 285.151 -86.298 283.217 -90.871 280.203 C-93.014 278.731 -93.014 278.731 -95.285 277.684 C-97.692 276.441 -97.991 275.244 -99.062 272.766 C-100.553 270.297 -100.553 270.297 -102.062 267.84 C-104.866 262.025 -105.38 256.505 -105.398 250.156 C-105.405 249.349 -105.412 248.541 -105.419 247.709 C-105.429 246.008 -105.433 244.307 -105.433 242.606 C-105.437 240.036 -105.474 237.468 -105.512 234.898 C-105.605 221.671 -104.09 211.827 -94.574 201.934 C-88.043 196.297 -80.911 193.655 -72.372 193.618 C-70.631 193.608 -70.631 193.608 -68.855 193.597 C-67.585 193.594 -66.315 193.591 -65.007 193.589 C-63.654 193.582 -62.3 193.576 -60.946 193.569 C-56.503 193.548 -52.06 193.537 -47.617 193.527 C-46.084 193.523 -44.552 193.519 -43.019 193.515 C-35.815 193.496 -28.611 193.482 -21.407 193.473 C-13.108 193.464 -4.81 193.437 3.489 193.397 C9.914 193.367 16.339 193.352 22.764 193.349 C26.596 193.346 30.428 193.337 34.26 193.312 C37.87 193.289 41.48 193.285 45.09 193.295 C47.032 193.296 48.974 193.277 50.917 193.257 C61.674 193.32 70.673 195.969 78.715 203.41 C87.92 212.965 88.57 223.839 88.404 236.427 C88.375 238.828 88.383 241.226 88.396 243.627 C88.384 253.805 88.001 263.261 81.812 271.828 C81.294 272.562 80.776 273.295 80.242 274.051 C78.938 275.766 78.938 275.766 77.938 276.766 C77.844 278.239 77.82 279.717 77.824 281.194 C77.824 282.135 77.824 283.075 77.824 284.045 C77.829 285.068 77.835 286.091 77.84 287.145 C77.841 288.186 77.843 289.228 77.844 290.301 C77.85 293.644 77.862 296.986 77.875 300.328 C77.88 302.588 77.885 304.848 77.889 307.107 C77.9 312.66 77.916 318.213 77.938 323.766 C82.312 323.853 86.687 323.906 91.062 323.953 C92.3 323.978 93.538 324.003 94.812 324.029 C96.011 324.039 97.21 324.049 98.445 324.059 C99.545 324.074 100.645 324.09 101.778 324.106 C107.286 323.512 111.124 321.097 114.688 316.953 C115.26 316.307 115.832 315.661 116.422 314.996 C120.064 309.636 120.229 304.266 120.205 298.025 C120.209 297.157 120.214 296.289 120.219 295.395 C120.231 292.494 120.23 289.592 120.228 286.69 C120.234 284.607 120.241 282.524 120.248 280.441 C120.266 274.786 120.271 269.131 120.272 263.476 C120.273 259.941 120.278 256.406 120.283 252.871 C120.302 240.534 120.31 228.196 120.308 215.859 C120.307 204.367 120.328 192.876 120.36 181.385 C120.386 171.512 120.396 161.639 120.395 151.767 C120.395 145.873 120.4 139.98 120.422 134.086 C120.441 128.541 120.441 122.996 120.427 117.45 C120.424 115.42 120.429 113.389 120.441 111.358 C121.02 95.56 121.02 95.56 114.217 81.854 C108.245 76.121 101.771 75.47 93.835 75.512 C92.928 75.509 92.022 75.505 91.087 75.502 C88.054 75.494 85.022 75.501 81.989 75.507 C79.812 75.504 77.635 75.501 75.458 75.496 C69.549 75.487 63.64 75.491 57.731 75.497 C51.547 75.502 45.363 75.497 39.179 75.494 C28.793 75.491 18.407 75.495 8.021 75.505 C-3.985 75.516 -15.991 75.512 -27.997 75.501 C-38.306 75.492 -48.614 75.491 -58.923 75.496 C-65.079 75.499 -71.236 75.5 -77.392 75.493 C-83.181 75.487 -88.97 75.491 -94.759 75.503 C-96.883 75.505 -99.007 75.505 -101.131 75.5 C-104.032 75.495 -106.932 75.502 -109.833 75.512 C-110.672 75.507 -111.512 75.503 -112.376 75.498 C-119.144 75.543 -125.06 76.288 -130.312 80.953 Z M-162.718 157.856 C-164.286 161.25 -164.57 163.576 -164.58 167.312 C-164.593 168.617 -164.605 169.922 -164.618 171.267 C-164.611 172.683 -164.603 174.099 -164.594 175.516 C-164.596 176.976 -164.6 178.437 -164.605 179.897 C-164.611 182.954 -164.603 186.01 -164.584 189.066 C-164.561 192.977 -164.574 196.887 -164.598 200.798 C-164.613 203.813 -164.608 206.827 -164.598 209.842 C-164.595 211.284 -164.598 212.725 -164.608 214.167 C-164.618 216.184 -164.6 218.202 -164.58 220.219 C-164.577 221.365 -164.574 222.511 -164.57 223.692 C-163.907 227.705 -163.289 229.225 -160.062 231.766 C-156.433 231.766 -152.803 231.766 -149.062 231.766 C-149.062 206.686 -149.062 181.606 -149.062 155.766 C-159.185 154.631 -159.185 154.631 -162.718 157.856 Z M131.938 155.766 C131.938 180.846 131.938 205.926 131.938 231.766 C140.954 232.554 140.954 232.554 144.5 230.391 C148.357 223.348 147.097 213.265 147.105 205.441 C147.109 204.296 147.112 203.15 147.116 201.97 C147.121 199.564 147.123 197.158 147.123 194.752 C147.125 191.078 147.143 187.406 147.162 183.732 C147.165 181.385 147.167 179.038 147.168 176.691 C147.175 175.6 147.182 174.508 147.19 173.383 C147.391 163.805 147.391 163.805 142.938 155.766 C139.308 155.766 135.678 155.766 131.938 155.766 Z M-77.977 205.047 C-83.971 207.113 -88.626 211.527 -92.062 216.766 C-93.796 221.151 -94.301 224.775 -94.258 229.477 C-94.251 230.721 -94.245 231.964 -94.238 233.246 C-94.222 234.531 -94.205 235.816 -94.188 237.141 C-94.178 238.449 -94.169 239.757 -94.16 241.105 C-94.137 244.326 -94.104 247.546 -94.062 250.766 C-93.248 250.133 -93.248 250.133 -92.418 249.488 C-91.703 248.94 -90.987 248.393 -90.25 247.828 C-89.542 247.283 -88.835 246.738 -88.105 246.176 C-83.512 243.005 -78.431 243.202 -73.062 243.766 C-67.599 245.412 -64.867 248.905 -62.008 253.668 C-59.682 258.828 -59.914 264.181 -59.917 269.728 C-59.914 270.621 -59.911 271.514 -59.907 272.435 C-59.898 275.384 -59.896 278.332 -59.895 281.281 C-59.891 283.338 -59.888 285.394 -59.884 287.45 C-59.878 291.761 -59.877 296.072 -59.877 300.382 C-59.877 305.891 -59.864 311.4 -59.846 316.908 C-59.835 321.157 -59.833 325.405 -59.834 329.653 C-59.833 331.684 -59.828 333.714 -59.82 335.744 C-59.811 338.591 -59.814 341.439 -59.82 344.286 C-59.814 345.116 -59.808 345.945 -59.803 346.799 C-59.844 354.532 -61.452 361.494 -64.062 368.766 C-48.929 368.836 -33.795 368.889 -18.66 368.921 C-11.633 368.937 -4.606 368.958 2.422 368.992 C9.204 369.025 15.986 369.042 22.768 369.05 C25.355 369.056 27.942 369.067 30.529 369.083 C34.154 369.105 37.778 369.108 41.403 369.106 C42.471 369.117 43.54 369.128 44.642 369.139 C51.173 369.112 56.488 368.666 61.68 364.301 C66.094 358.562 66.087 354.078 66.083 347.009 C66.086 346.126 66.089 345.242 66.093 344.332 C66.102 341.41 66.104 338.488 66.105 335.566 C66.109 333.531 66.112 331.496 66.116 329.46 C66.122 325.191 66.123 320.921 66.123 316.652 C66.123 311.196 66.136 305.74 66.154 300.283 C66.165 296.077 66.167 291.871 66.166 287.665 C66.167 285.654 66.172 283.643 66.18 281.633 C66.189 278.812 66.186 275.991 66.18 273.169 C66.186 272.348 66.192 271.526 66.197 270.679 C66.145 260.928 64.381 253.882 57.875 246.391 C55.976 244.444 55.976 244.444 52.938 244.766 C52.938 244.106 52.938 243.446 52.938 242.766 C55.338 243.164 57.731 243.584 60.125 244.016 C60.799 244.125 61.472 244.235 62.166 244.348 C66.763 245.2 69.608 246.485 72.938 249.766 C74.75 253.016 74.75 253.016 75.938 255.766 C76.268 255.766 76.597 255.766 76.938 255.766 C77.012 251.194 77.066 246.623 77.102 242.051 C77.117 240.498 77.138 238.945 77.164 237.393 C77.201 235.151 77.217 232.91 77.23 230.668 C77.246 229.982 77.261 229.297 77.277 228.59 C77.28 221.183 74.536 215.74 69.602 210.344 C65.774 206.714 62.123 204.528 56.711 204.668 C54.843 204.716 54.843 204.716 52.938 204.766 C52.864 206.537 52.864 206.537 52.789 208.344 C52.714 209.901 52.638 211.458 52.562 213.016 C52.532 213.793 52.501 214.57 52.469 215.371 C52.085 222.849 52.085 222.849 49.938 225.766 C45.108 228.663 42.167 229.101 36.734 227.797 C33.99 226.222 33.218 224.66 31.938 221.766 C31.458 218.832 31.337 215.922 31.25 212.953 C31.216 212.165 31.182 211.377 31.146 210.564 C31.065 208.632 30.999 206.699 30.938 204.766 C26.978 204.766 23.017 204.766 18.938 204.766 C18.9 205.935 18.863 207.104 18.824 208.309 C18.759 209.857 18.692 211.405 18.625 212.953 C18.602 213.722 18.58 214.491 18.557 215.283 C18.341 219.844 17.959 223.116 14.938 226.766 C11.808 228.562 8.477 229.029 4.93 228.422 C3.062 227.766 3.062 227.766 -0.062 225.766 C-2.137 221.166 -2.313 216.853 -2.188 211.891 C-2.178 211.202 -2.169 210.514 -2.16 209.805 C-2.137 208.125 -2.101 206.445 -2.062 204.766 C-6.353 204.766 -10.642 204.766 -15.062 204.766 C-15.1 205.935 -15.137 207.104 -15.176 208.309 C-15.241 209.857 -15.308 211.405 -15.375 212.953 C-15.398 213.722 -15.42 214.491 -15.443 215.283 C-15.658 219.839 -16.031 223.128 -19.062 226.766 C-22.571 228.637 -26.027 228.996 -29.875 228.141 C-32.502 226.49 -33.527 225.49 -35.062 222.766 C-35.547 219.71 -35.62 216.667 -35.688 213.578 C-35.361 208.251 -35.361 208.251 -37.062 203.766 C-39.087 203.856 -41.108 204.012 -43.125 204.203 C-44.23 204.305 -45.334 204.407 -46.473 204.512 C-47.327 204.596 -48.182 204.679 -49.062 204.766 C-49.077 206.007 -49.091 207.248 -49.105 208.527 C-49.152 210.169 -49.201 211.811 -49.25 213.453 C-49.256 214.27 -49.262 215.086 -49.268 215.928 C-49.425 220.246 -49.68 222.252 -52.332 225.809 C-55.079 227.777 -56.246 228.449 -59.562 228.391 C-60.295 228.404 -61.027 228.416 -61.781 228.43 C-65.396 227.378 -66.821 225.77 -69.062 222.766 C-69.786 219.659 -69.852 216.634 -69.875 213.453 C-69.9 212.617 -69.925 211.781 -69.951 210.92 C-70.01 208.869 -70.039 206.817 -70.062 204.766 C-72.922 203.336 -75.007 204.232 -77.977 205.047 Z M-81.875 256.078 C-84.35 259.595 -84.167 262.118 -84.125 266.391 C-84.116 267.579 -84.107 268.768 -84.098 269.992 C-84.086 270.907 -84.074 271.823 -84.062 272.766 C-82.651 273.3 -81.233 273.817 -79.812 274.328 C-79.024 274.618 -78.235 274.908 -77.422 275.207 C-74.871 275.811 -73.509 275.613 -71.062 274.766 C-70.45 264.777 -70.45 264.777 -74.062 255.766 C-77.319 254.544 -78.973 253.977 -81.875 256.078 Z M-94.062 335.766 C-94.15 339.307 -94.203 342.848 -94.25 346.391 C-94.275 347.39 -94.3 348.389 -94.326 349.418 C-94.381 354.951 -94.292 359.035 -91.062 363.766 C-88.018 366.336 -85.922 367.608 -82 368.328 C-77.93 367.549 -76.607 365.998 -74.062 362.766 C-71.005 357.009 -70.655 352.344 -70.812 345.891 C-70.818 345.024 -70.823 344.158 -70.828 343.266 C-70.527 339.191 -70.527 339.191 -72.062 335.766 C-73.697 335.679 -75.336 335.659 -76.973 335.668 C-78.457 335.673 -78.457 335.673 -79.971 335.678 C-81.532 335.69 -81.532 335.69 -83.125 335.703 C-84.692 335.71 -84.692 335.71 -86.291 335.717 C-88.882 335.729 -91.472 335.745 -94.062 335.766 Z " fill="#999999" transform="translate(177.0625,8.234375)"/>
<path d="M0 0 C0 0.66 0 1.32 0 2 C0.66 2 1.32 2 2 2 C4 5 4 5 4 8 C4.66 8 5.32 8 6 8 C7.819 14.329 8.162 21.332 5.312 27.375 C1.002 34.745 -4.155 37.385 -12 40 C-19.393 40.739 -24.977 38.015 -31 34 C-31 33.34 -31 32.68 -31 32 C-31.66 32 -32.32 32 -33 32 C-37.341 25.082 -37.972 19.09 -37 11 C-35.459 5.077 -32.065 1.566 -27.062 -1.809 C-18.131 -6.968 -8.248 -5.682 0 0 Z " fill="#1FF9E8" transform="translate(240,138)"/>
<path d="M0 0 C0 0.66 0 1.32 0 2 C0.578 2.227 1.155 2.454 1.75 2.688 C6.221 5.296 8.374 9.22 10 14 C10.907 21.053 10.366 27.239 6 33 C0.182 39.14 -3.753 41.113 -12.188 41.375 C-19.811 41.281 -24.414 39.444 -29.883 34.191 C-34.536 28.466 -34.836 22.736 -34.512 15.531 C-33.504 8.576 -30.387 4.916 -25.062 0.562 C-17.752 -4.447 -7.856 -3.928 0 0 Z " fill="#1DFBE9" transform="translate(124,136)"/>
<path d="M0 0 C1.327 0.005 1.327 0.005 2.681 0.011 C4.071 0.011 4.071 0.011 5.489 0.01 C8.568 0.011 11.647 0.019 14.726 0.027 C16.854 0.029 18.983 0.03 21.111 0.031 C26.725 0.035 32.34 0.045 37.954 0.056 C43.678 0.066 49.402 0.071 55.126 0.076 C66.366 0.086 77.607 0.103 88.847 0.124 C90.939 4.309 89.847 9.446 89.847 14.124 C57.837 14.124 25.827 14.124 -7.153 14.124 C-7.153 0.012 -7.153 0.012 0 0 Z " fill="#19EDDA" transform="translate(139.1532440185547,333.8755798339844)"/>
<path d="M0 0 C11.023 -0.023 22.046 -0.041 33.069 -0.052 C38.188 -0.057 43.308 -0.064 48.427 -0.075 C53.374 -0.086 58.321 -0.092 63.269 -0.095 C65.149 -0.097 67.03 -0.1 68.91 -0.106 C78.338 -0.132 87.619 -0.088 97 1 C97 5.29 97 9.58 97 14 C64.99 14 32.98 14 0 14 C0 9.38 0 4.76 0 0 Z " fill="#1FF2E0" transform="translate(132,306)"/>
<path d="M0 0 C32.01 0 64.02 0 97 0 C97 4.29 97 8.58 97 13 C64.99 13 32.98 13 0 13 C0 8.71 0 4.42 0 0 Z " fill="#1FF7E6" transform="translate(132,279)"/>
<path d="M0 0 C0.892 0.102 1.784 0.204 2.703 0.309 C3.379 0.392 4.054 0.476 4.75 0.562 C4.75 1.553 4.75 2.542 4.75 3.562 C0.492 4.982 -3.479 5.289 -7.688 3.562 C-8.203 3.232 -8.719 2.903 -9.25 2.562 C-9.25 1.903 -9.25 1.243 -9.25 0.562 C-5.981 -0.469 -3.39 -0.401 0 0 Z " fill="#28DFD2" transform="translate(226.25,173.4375)"/>
<path d="M0 0 C2.31 0 4.62 0 7 0 C5.51 3.794 3.309 5.683 0 8 C-0.66 8 -1.32 8 -2 8 C-1.333 5.333 -0.667 2.667 0 0 Z " fill="#21EBDA" transform="translate(122,168)"/>
<path d="M0 0 C-0.33 1.32 -0.66 2.64 -1 4 C-3.31 4 -5.62 4 -8 4 C-4.5 0 -4.5 0 0 0 Z " fill="#23E0D2" transform="translate(107,134)"/>
<path d="M0 0 C0.33 0 0.66 0 1 0 C1.054 1.77 1.093 3.541 1.125 5.312 C1.148 6.299 1.171 7.285 1.195 8.301 C1 11 1 11 -1 14 C-1 12.02 -1 10.04 -1 8 C-1.66 7.67 -2.32 7.34 -3 7 C-2.01 6.67 -1.02 6.34 0 6 C0 4.02 0 2.04 0 0 Z " fill="#24D5CB" transform="translate(133,150)"/>
<path d="M0 0 C-0.186 0.619 -0.371 1.238 -0.562 1.875 C-1.237 4.042 -1.237 4.042 0 6 C-4.875 4.25 -4.875 4.25 -6 2 C-2.25 0 -2.25 0 0 0 Z " fill="#29EBDB" transform="translate(101,168)"/>
</svg>
